<svg width="157" height="25" viewBox="0 0 157 25" fill="none" xmlns="http://www.w3.org/2000/svg">
<path d="M140.83 0.56073L150 24.0465H146.537L143.931 16.8556H134.068L131.396 24.0465H128.098L137.334 0.56073H140.83ZM143.007 14.3817L139.016 3.52944L134.959 14.3817H143.007Z" fill="white"/>
<path d="M108.571 0.56073H118.895C124.14 0.56073 126.779 2.73778 126.779 7.0589C126.779 8.4443 126.383 9.63178 125.657 10.6873C124.932 11.7429 123.942 12.4356 122.755 12.7654C123.546 12.9633 124.173 13.1942 124.668 13.5241C125.13 13.8539 125.492 14.3157 125.723 14.9095C125.921 15.5032 126.086 16.031 126.152 16.4928C126.218 16.9546 126.251 17.6473 126.317 18.5379C126.317 18.6369 126.317 18.8678 126.35 19.1976C126.35 19.5275 126.383 19.7584 126.383 19.8903C126.383 20.0223 126.383 20.2202 126.416 20.517C126.449 20.8469 126.482 21.0778 126.515 21.2097C126.515 21.3747 126.548 21.5726 126.614 21.8365C126.647 22.1004 126.713 22.3313 126.779 22.4962C126.845 22.6611 126.911 22.859 127.01 23.0569C127.076 23.2548 127.175 23.4528 127.307 23.6177C127.406 23.7826 127.538 23.9146 127.67 24.0465H124.107C123.942 23.8486 123.81 23.5517 123.711 23.2219C123.612 22.892 123.546 22.5292 123.513 22.0674C123.447 21.6056 123.414 21.2427 123.414 20.9788C123.381 20.715 123.348 20.2861 123.348 19.7584C123.315 19.2306 123.315 18.9337 123.315 18.8678C123.183 16.8886 122.788 15.5362 122.062 14.8765C121.336 14.2168 119.951 13.8869 117.84 13.8869H111.672V24.0465H108.571V0.56073ZM111.672 3.19958V11.413H117.51C118.236 11.413 118.829 11.413 119.324 11.347C119.819 11.314 120.38 11.2151 120.973 11.0502C121.567 10.9182 122.029 10.6873 122.392 10.3904C122.755 10.1266 123.052 9.69775 123.315 9.16998C123.546 8.64221 123.678 8.01548 123.678 7.25681C123.678 5.6735 123.183 4.61796 122.227 4.05721C121.27 3.49645 119.984 3.19958 118.335 3.19958H111.672Z" fill="white"/>
<path d="M93.5897 0C97.1521 0 99.9229 1.12151 101.902 3.36454C103.881 5.60756 104.871 8.51029 104.871 12.1057C104.871 15.7342 103.881 18.7358 101.935 21.0778C99.9559 23.4528 97.1851 24.6073 93.6227 24.6073C91.7755 24.6073 90.1592 24.2774 88.7078 23.6177C87.2565 22.958 86.069 22.0674 85.1454 20.8799C84.2218 19.7254 83.5291 18.406 83.0673 16.8886C82.6055 15.4043 82.3746 13.788 82.3746 12.0398C82.3746 8.37835 83.3642 5.44263 85.4093 3.26558C87.4544 1.08853 90.1592 0 93.5897 0ZM93.5897 2.70482C90.9508 2.70482 88.9387 3.62842 87.5533 5.47562C86.1679 7.32281 85.4422 9.56584 85.4422 12.2707C85.4422 15.2394 86.2009 17.5813 87.6853 19.3296C89.1696 21.0778 91.1488 21.9354 93.6227 21.9354C96.0966 21.9354 98.0757 21.0778 99.5601 19.2966C101.011 17.5484 101.77 15.2064 101.77 12.2707C101.77 9.36792 101.011 7.05893 99.5271 5.31069C98.0428 3.59544 96.0636 2.70482 93.5897 2.70482Z" fill="white"/>
<path d="M81.2325 0.56073V3.26555H73.3489V24.0465H70.2483V3.26555H62.3647V0.56073H81.2325Z" fill="white"/>
<path d="M60.3577 7.45473L57.3231 7.48772C56.9932 4.28811 55.0471 2.7048 51.4846 2.7048C49.8023 2.7048 48.4829 3.03466 47.5593 3.72736C46.6357 4.38707 46.1739 5.34365 46.1739 6.59711C46.1739 7.02592 46.2399 7.42175 46.3718 7.75161C46.5038 8.08146 46.7347 8.34535 47.0645 8.60923C47.3944 8.87312 47.6913 9.07103 47.9551 9.26894C48.252 9.43387 48.7138 9.5988 49.3076 9.76373C49.9343 9.96164 50.4291 10.0936 50.7919 10.1596C51.1877 10.2255 51.7485 10.3575 52.5402 10.5224C53.5297 10.7203 54.3214 10.9182 54.9481 11.0832C55.6078 11.2481 56.3665 11.512 57.2241 11.8748C58.1147 12.2706 58.8074 12.6665 59.3352 13.1283C59.863 13.5901 60.2918 14.1838 60.6876 14.9095C61.0834 15.6682 61.2484 16.5258 61.2484 17.4494C61.2484 19.0987 60.7866 20.4841 59.863 21.6056C58.9394 22.7271 57.8179 23.4858 56.4984 23.9146C55.179 24.3764 53.7276 24.5743 52.1113 24.5743C49.1756 24.5743 46.8336 23.8816 45.0524 22.4962C43.2712 21.1108 42.3806 19.0327 42.3806 16.2949H45.3823C45.4482 18.307 46.1409 19.7584 47.3944 20.682C48.6808 21.6056 50.3301 22.0674 52.3752 22.0674C53.9915 22.0674 55.3769 21.7045 56.5314 21.0448C57.6529 20.3851 58.2467 19.2966 58.2467 17.7792C58.2467 17.0536 58.0817 16.4598 57.7849 15.965C57.455 15.4702 56.9932 15.0744 56.3335 14.7446C55.6738 14.4147 55.0141 14.1838 54.3544 13.9859C53.6946 13.788 52.804 13.5571 51.7485 13.3262C51.5836 13.2932 51.4846 13.2602 51.4186 13.2272C48.9777 12.6995 47.3944 12.2377 46.6687 11.9078C44.3597 10.9182 43.2382 9.23596 43.2382 6.79502C43.2382 4.552 44.0628 2.90272 45.7121 1.78121C47.3614 0.659692 49.3735 0.098938 51.7155 0.098938C54.2884 0.098938 56.3665 0.725665 57.8838 1.94613C59.4342 3.19959 60.2588 5.0138 60.3577 7.45473Z" fill="white"/>
<path d="M40.0144 0.56073V3.26555H26.8531V10.6214H39.1568V13.2272H26.8531V21.3417H40.1793V24.0465H23.7525V0.56073H40.0144Z" fill="white"/>
<path d="M0 0.56073H3.39752L15.8001 19.6264V0.56073H18.8018V24.0465H15.3053L2.96871 5.2117V24.0465H0V0.56073Z" fill="white"/>
<path d="M153.04 7V3.91218H150V3.08782H153.04V0H153.96V3.08782H157V3.91218H153.96V7H153.04Z" fill="white"/>
</svg>
